<mxfile host="app.diagrams.net" modified="2020-03-19T15:01:10.920Z" agent="Mozilla/5.0 (Windows NT 10.0; WOW64) AppleWebKit/537.36 (KHTML, like Gecko) Chrome/80.0.3987.132 Safari/537.36 OPR/67.0.3575.79" etag="umd9LwBTyz-bvo597lsq" version="12.8.8" type="github">
  <diagram name="Page-1" id="42789a77-a242-8287-6e28-9cd8cfd52e62">
    <mxGraphModel dx="2022" dy="1155" grid="1" gridSize="10" guides="1" tooltips="1" connect="1" arrows="1" fold="1" page="1" pageScale="1" pageWidth="1100" pageHeight="850" background="#ffffff" math="0" shadow="0">
      <root>
        <mxCell id="0" />
        <mxCell id="1" parent="0" />
        <mxCell id="1ea317790d2ca983-14" value="Czujnik 1" style="edgeStyle=none;rounded=1;html=1;labelBackgroundColor=none;startArrow=none;startFill=0;startSize=5;endArrow=classicThin;endFill=1;endSize=5;jettySize=auto;orthogonalLoop=1;strokeColor=#B3B3B3;strokeWidth=1;fontFamily=Verdana;fontSize=12" parent="1" source="1ea317790d2ca983-1" target="1ea317790d2ca983-3" edge="1">
          <mxGeometry relative="1" as="geometry" />
        </mxCell>
        <mxCell id="1ea317790d2ca983-1" value="Wjazd części w strefę roboczą" style="ellipse;whiteSpace=wrap;html=1;rounded=0;shadow=1;comic=0;labelBackgroundColor=none;strokeWidth=1;fontFamily=Verdana;fontSize=12;align=center;" parent="1" vertex="1">
          <mxGeometry x="443" y="20" width="107.5" height="60" as="geometry" />
        </mxCell>
        <mxCell id="1ea317790d2ca983-3" value="&lt;span&gt;Spowolnienie taśmy&lt;/span&gt;" style="ellipse;whiteSpace=wrap;html=1;rounded=0;shadow=1;comic=0;labelBackgroundColor=none;strokeWidth=1;fontFamily=Verdana;fontSize=12;align=center;" parent="1" vertex="1">
          <mxGeometry x="450" y="120" width="92.5" height="50" as="geometry" />
        </mxCell>
        <mxCell id="OLLGJLySp4nUVTmZsZ1r-1" value="Czujnik 2" style="edgeStyle=none;rounded=1;html=1;labelBackgroundColor=none;startArrow=none;startFill=0;startSize=5;endArrow=classicThin;endFill=1;endSize=5;jettySize=auto;orthogonalLoop=1;strokeColor=#B3B3B3;strokeWidth=1;fontFamily=Verdana;fontSize=12" parent="1" target="OLLGJLySp4nUVTmZsZ1r-2" edge="1">
          <mxGeometry relative="1" as="geometry">
            <mxPoint x="497.5" y="170" as="sourcePoint" />
          </mxGeometry>
        </mxCell>
        <mxCell id="OLLGJLySp4nUVTmZsZ1r-2" value="&lt;span&gt;Zatrzymanie taśmy i zamknięcie zatrzasków&lt;/span&gt;" style="ellipse;whiteSpace=wrap;html=1;rounded=0;shadow=1;comic=0;labelBackgroundColor=none;strokeWidth=1;fontFamily=Verdana;fontSize=12;align=center;" parent="1" vertex="1">
          <mxGeometry x="425" y="210" width="142.5" height="90" as="geometry" />
        </mxCell>
        <mxCell id="OLLGJLySp4nUVTmZsZ1r-3" value="Czujnik 3" style="edgeStyle=none;rounded=1;html=1;labelBackgroundColor=none;startArrow=none;startFill=0;startSize=5;endArrow=classicThin;endFill=1;endSize=5;jettySize=auto;orthogonalLoop=1;strokeColor=#B3B3B3;strokeWidth=1;fontFamily=Verdana;fontSize=12" parent="1" target="OLLGJLySp4nUVTmZsZ1r-4" edge="1">
          <mxGeometry relative="1" as="geometry">
            <mxPoint x="498" y="300" as="sourcePoint" />
          </mxGeometry>
        </mxCell>
        <mxCell id="OLLGJLySp4nUVTmZsZ1r-4" value="&lt;span&gt;Zezwolenie na pracę robotów&lt;/span&gt;" style="ellipse;whiteSpace=wrap;html=1;rounded=0;shadow=1;comic=0;labelBackgroundColor=none;strokeWidth=1;fontFamily=Verdana;fontSize=12;align=center;" parent="1" vertex="1">
          <mxGeometry x="441" y="340" width="109.5" height="60" as="geometry" />
        </mxCell>
        <mxCell id="OLLGJLySp4nUVTmZsZ1r-5" value="Praca robotów" style="edgeStyle=none;rounded=1;html=1;labelBackgroundColor=none;startArrow=none;startFill=0;startSize=5;endArrow=classicThin;endFill=1;endSize=5;jettySize=auto;orthogonalLoop=1;strokeColor=#B3B3B3;strokeWidth=1;fontFamily=Verdana;fontSize=12;exitX=0.36;exitY=1.01;exitDx=0;exitDy=0;exitPerimeter=0;" parent="1" source="OLLGJLySp4nUVTmZsZ1r-4" target="OLLGJLySp4nUVTmZsZ1r-6" edge="1">
          <mxGeometry relative="1" as="geometry">
            <mxPoint x="405" y="400" as="sourcePoint" />
          </mxGeometry>
        </mxCell>
        <mxCell id="OLLGJLySp4nUVTmZsZ1r-6" value="&lt;span&gt;Home robot 1&lt;/span&gt;" style="ellipse;whiteSpace=wrap;html=1;rounded=0;shadow=1;comic=0;labelBackgroundColor=none;strokeWidth=1;fontFamily=Verdana;fontSize=12;align=center;" parent="1" vertex="1">
          <mxGeometry x="357.5" y="440" width="92.5" height="50" as="geometry" />
        </mxCell>
        <mxCell id="OLLGJLySp4nUVTmZsZ1r-7" value="Praca robotów" style="edgeStyle=none;rounded=1;html=1;labelBackgroundColor=none;startArrow=none;startFill=0;startSize=5;endArrow=classicThin;endFill=1;endSize=5;jettySize=auto;orthogonalLoop=1;strokeColor=#B3B3B3;strokeWidth=1;fontFamily=Verdana;fontSize=12" parent="1" source="OLLGJLySp4nUVTmZsZ1r-4" target="OLLGJLySp4nUVTmZsZ1r-8" edge="1">
          <mxGeometry relative="1" as="geometry">
            <mxPoint x="590" y="400" as="sourcePoint" />
          </mxGeometry>
        </mxCell>
        <mxCell id="OLLGJLySp4nUVTmZsZ1r-8" value="&lt;span&gt;Home robot 2&lt;/span&gt;" style="ellipse;whiteSpace=wrap;html=1;rounded=0;shadow=1;comic=0;labelBackgroundColor=none;strokeWidth=1;fontFamily=Verdana;fontSize=12;align=center;" parent="1" vertex="1">
          <mxGeometry x="542.5" y="440" width="92.5" height="50" as="geometry" />
        </mxCell>
        <mxCell id="OLLGJLySp4nUVTmZsZ1r-9" value="Zakończenie pracy robota 1" style="edgeStyle=none;rounded=1;html=1;labelBackgroundColor=none;startArrow=none;startFill=0;startSize=5;endArrow=classicThin;endFill=1;endSize=5;jettySize=auto;orthogonalLoop=1;strokeColor=#B3B3B3;strokeWidth=1;fontFamily=Verdana;fontSize=12" parent="1" target="OLLGJLySp4nUVTmZsZ1r-10" edge="1">
          <mxGeometry relative="1" as="geometry">
            <mxPoint x="405" y="490" as="sourcePoint" />
          </mxGeometry>
        </mxCell>
        <mxCell id="OLLGJLySp4nUVTmZsZ1r-10" value="&lt;span style=&quot;color: rgb(36 , 41 , 46) ; font-family: , &amp;#34;consolas&amp;#34; , &amp;#34;liberation mono&amp;#34; , &amp;#34;menlo&amp;#34; , monospace ; white-space: pre ; background-color: rgb(255 , 255 , 255)&quot;&gt;Sprawdzenie pozycji robota, &lt;br/&gt;ew. czekanie na drugiego robota&lt;/span&gt;" style="ellipse;whiteSpace=wrap;html=1;rounded=0;shadow=1;comic=0;labelBackgroundColor=none;strokeWidth=1;fontFamily=Verdana;fontSize=12;align=center;" parent="1" vertex="1">
          <mxGeometry x="230" y="520" width="250" height="55" as="geometry" />
        </mxCell>
        <mxCell id="OLLGJLySp4nUVTmZsZ1r-14" value="Zakończenie pracy robota 2" style="edgeStyle=none;rounded=1;html=1;labelBackgroundColor=none;startArrow=none;startFill=0;startSize=5;endArrow=classicThin;endFill=1;endSize=5;jettySize=auto;orthogonalLoop=1;strokeColor=#B3B3B3;strokeWidth=1;fontFamily=Verdana;fontSize=12;exitX=0.738;exitY=1.036;exitDx=0;exitDy=0;exitPerimeter=0;" parent="1" source="OLLGJLySp4nUVTmZsZ1r-8" target="OLLGJLySp4nUVTmZsZ1r-15" edge="1">
          <mxGeometry relative="1" as="geometry">
            <mxPoint x="675" y="490" as="sourcePoint" />
          </mxGeometry>
        </mxCell>
        <mxCell id="OLLGJLySp4nUVTmZsZ1r-15" value="&lt;span style=&quot;color: rgb(36 , 41 , 46) ; font-family: , &amp;#34;consolas&amp;#34; , &amp;#34;liberation mono&amp;#34; , &amp;#34;menlo&amp;#34; , monospace ; white-space: pre ; background-color: rgb(255 , 255 , 255)&quot;&gt;Sprawdzenie pozycji robota, &lt;br/&gt;ew. czekanie na drugiego robota&lt;/span&gt;" style="ellipse;whiteSpace=wrap;html=1;rounded=0;shadow=1;comic=0;labelBackgroundColor=none;strokeWidth=1;fontFamily=Verdana;fontSize=12;align=center;" parent="1" vertex="1">
          <mxGeometry x="530" y="520" width="250" height="55" as="geometry" />
        </mxCell>
        <mxCell id="OLLGJLySp4nUVTmZsZ1r-17" value="&lt;font color=&quot;#24292e&quot;&gt;&lt;span style=&quot;white-space: pre ; background-color: rgb(255 , 255 , 255)&quot;&gt;Wyłączenie zezwolenia na pracę robota&lt;br/&gt;&lt;/span&gt;&lt;/font&gt;i zwolnienie zatrzasków" style="ellipse;whiteSpace=wrap;html=1;rounded=0;shadow=1;comic=0;labelBackgroundColor=none;strokeWidth=1;fontFamily=Verdana;fontSize=12;align=center;" parent="1" vertex="1">
          <mxGeometry x="370.75" y="610" width="250" height="55" as="geometry" />
        </mxCell>
        <mxCell id="OLLGJLySp4nUVTmZsZ1r-20" value="Zakończenie pracy robotów" style="edgeStyle=none;rounded=1;html=1;labelBackgroundColor=none;startArrow=none;startFill=0;startSize=5;endArrow=classicThin;endFill=1;endSize=5;jettySize=auto;orthogonalLoop=1;strokeColor=#B3B3B3;strokeWidth=1;fontFamily=Verdana;fontSize=12;exitX=0.5;exitY=1;exitDx=0;exitDy=0;entryX=0.5;entryY=0;entryDx=0;entryDy=0;" parent="1" source="OLLGJLySp4nUVTmZsZ1r-10" target="OLLGJLySp4nUVTmZsZ1r-17" edge="1">
          <mxGeometry x="-0.2141" y="-1" relative="1" as="geometry">
            <mxPoint x="690" y="690" as="sourcePoint" />
            <mxPoint x="712.5680189708121" y="718.6162737135153" as="targetPoint" />
            <mxPoint as="offset" />
          </mxGeometry>
        </mxCell>
        <mxCell id="OLLGJLySp4nUVTmZsZ1r-21" value="Zakończenie pracy robotów" style="edgeStyle=none;rounded=1;html=1;labelBackgroundColor=none;startArrow=none;startFill=0;startSize=5;endArrow=classicThin;endFill=1;endSize=5;jettySize=auto;orthogonalLoop=1;strokeColor=#B3B3B3;strokeWidth=1;fontFamily=Verdana;fontSize=12;exitX=0.5;exitY=1;exitDx=0;exitDy=0;entryX=0.5;entryY=0;entryDx=0;entryDy=0;" parent="1" source="OLLGJLySp4nUVTmZsZ1r-15" target="OLLGJLySp4nUVTmZsZ1r-17" edge="1">
          <mxGeometry x="-0.5412" y="7" relative="1" as="geometry">
            <mxPoint x="700" y="680" as="sourcePoint" />
            <mxPoint x="722.5680189708121" y="708.6162737135153" as="targetPoint" />
            <mxPoint as="offset" />
          </mxGeometry>
        </mxCell>
        <mxCell id="OLLGJLySp4nUVTmZsZ1r-22" value="Czujnik 3" style="edgeStyle=none;rounded=1;html=1;labelBackgroundColor=none;startArrow=none;startFill=0;startSize=5;endArrow=classicThin;endFill=1;endSize=5;jettySize=auto;orthogonalLoop=1;strokeColor=#B3B3B3;strokeWidth=1;fontFamily=Verdana;fontSize=12" parent="1" target="OLLGJLySp4nUVTmZsZ1r-23" edge="1">
          <mxGeometry relative="1" as="geometry">
            <mxPoint x="497" y="665" as="sourcePoint" />
          </mxGeometry>
        </mxCell>
        <mxCell id="OLLGJLySp4nUVTmZsZ1r-23" value="&lt;span&gt;Włączenie taśmy&lt;/span&gt;" style="ellipse;whiteSpace=wrap;html=1;rounded=0;shadow=1;comic=0;labelBackgroundColor=none;strokeWidth=1;fontFamily=Verdana;fontSize=12;align=center;" parent="1" vertex="1">
          <mxGeometry x="424.5" y="705" width="145.5" height="45" as="geometry" />
        </mxCell>
        <mxCell id="OLLGJLySp4nUVTmZsZ1r-24" value="Czujnik 2" style="edgeStyle=none;rounded=1;html=1;labelBackgroundColor=none;startArrow=none;startFill=0;startSize=5;endArrow=classicThin;endFill=1;endSize=5;jettySize=auto;orthogonalLoop=1;strokeColor=#B3B3B3;strokeWidth=1;fontFamily=Verdana;fontSize=12;entryX=0.5;entryY=1;entryDx=0;entryDy=0;exitX=0.5;exitY=0;exitDx=0;exitDy=0;" parent="1" source="1ea317790d2ca983-1" target="OLLGJLySp4nUVTmZsZ1r-23" edge="1">
          <mxGeometry relative="1" as="geometry">
            <mxPoint x="870" y="210" as="sourcePoint" />
            <mxPoint x="869.5" y="250" as="targetPoint" />
            <Array as="points">
              <mxPoint x="800" y="20" />
              <mxPoint x="800" y="750" />
            </Array>
          </mxGeometry>
        </mxCell>
      </root>
    </mxGraphModel>
  </diagram>
</mxfile>
